<svg width="37" height="6" viewBox="0 0 37 6" fill="none" xmlns="http://www.w3.org/2000/svg">
<path d="M2.86047 0L3.53573 2.07824H5.72092L3.95306 3.36267L4.62833 5.44091L2.86047 4.15649L1.09261 5.44091L1.76787 3.36267L8.97469e-06 2.07824H2.1852L2.86047 0Z" fill="#FFD700"/>
<path d="M10.6801 0L11.3554 2.07824H13.5406L11.7727 3.36267L12.448 5.44091L10.6801 4.15649L8.91228 5.44091L9.58754 3.36267L7.81969 2.07824H10.0049L10.6801 0Z" fill="#FFD700"/>
<path d="M18.4998 0L19.175 2.07824H21.3602L19.5924 3.36267L20.2676 5.44091L18.4998 4.15649L16.7319 5.44091L17.4072 3.36267L15.6393 2.07824H17.8245L18.4998 0Z" fill="#FFD700"/>
<path d="M26.3199 0L26.9952 2.07824H29.1804L27.4125 3.36267L28.0878 5.44091L26.3199 4.15649L24.5521 5.44091L25.2273 3.36267L23.4595 2.07824H25.6447L26.3199 0Z" fill="#FFD700"/>
<path d="M34.1395 0L34.8148 2.07824H37L35.2321 3.36267L35.9074 5.44091L34.1395 4.15649L32.3717 5.44091L33.0469 3.36267L31.2791 2.07824H33.4643L34.1395 0Z" fill="#FFD700"/>
</svg>
