<svg width="13" height="10" viewBox="0 0 13 10" fill="none" xmlns="http://www.w3.org/2000/svg">
<path d="M2.9547 3.78319C2.81018 3.78319 2.6715 3.80473 2.53346 3.82438C2.57817 3.67736 2.62419 3.52781 2.69807 3.39346C2.77195 3.19828 2.8873 3.02908 3.00201 2.85862C3.09793 2.67421 3.26707 2.54937 3.3915 2.39158C3.52176 2.23823 3.69934 2.1362 3.83997 2.00883C3.97801 1.87575 4.15882 1.80921 4.30269 1.71542C4.45304 1.63114 4.58395 1.53799 4.72393 1.49363L5.07325 1.35295L5.38043 1.22811L5.06612 0L4.67922 0.0912525C4.55544 0.12167 4.40444 0.157157 4.2327 0.199615C4.05707 0.2313 3.86978 0.318117 3.6611 0.39733C3.45501 0.487315 3.21652 0.54815 2.99488 0.692634C2.77195 0.83078 2.51466 0.946113 2.28784 1.13115C2.06814 1.3219 1.80308 1.48729 1.60736 1.73C1.3935 1.95686 1.18223 2.19513 1.01827 2.46636C0.828382 2.72491 0.699416 3.00881 0.563321 3.28953C0.440187 3.57026 0.341033 3.85733 0.260024 4.13616C0.106431 4.69508 0.0377354 5.22612 0.0111645 5.68048C-0.0108699 6.13548 0.00209149 6.5138 0.0293105 6.78756C0.0390315 6.91683 0.0571776 7.0423 0.070139 7.12912L0.0863406 7.23558L0.103191 7.23178C0.218457 7.75828 0.483805 8.2421 0.868538 8.6273C1.25327 9.01249 1.74167 9.28331 2.27723 9.40843C2.8128 9.53354 3.37364 9.50784 3.89489 9.33429C4.41614 9.16074 4.87649 8.84644 5.2227 8.42775C5.5689 8.00906 5.7868 7.50308 5.8512 6.96835C5.9156 6.43362 5.82386 5.89198 5.5866 5.4061C5.34934 4.92022 4.97625 4.50995 4.51049 4.22275C4.04474 3.93555 3.50534 3.78315 2.9547 3.78319ZM10.0835 3.78319C9.93896 3.78319 9.80027 3.80473 9.66223 3.82438C9.70695 3.67736 9.75296 3.52781 9.82685 3.39346C9.90072 3.19828 10.0161 3.02908 10.1308 2.85862C10.2267 2.67421 10.3959 2.54937 10.5203 2.39158C10.6505 2.23823 10.8281 2.1362 10.9687 2.00883C11.1068 1.87575 11.2876 1.80921 11.4315 1.71542C11.5818 1.63114 11.7127 1.53799 11.8527 1.49363L12.202 1.35295L12.5092 1.22811L12.1949 0L11.808 0.0912525C11.6842 0.12167 11.5332 0.157157 11.3615 0.199615C11.1858 0.2313 10.9986 0.318117 10.7899 0.39733C10.5844 0.487949 10.3453 0.54815 10.1237 0.693267C9.90072 0.831414 9.64344 0.946747 9.41662 1.13179C9.19692 1.32253 8.93186 1.48793 8.73614 1.73C8.52228 1.95686 8.31101 2.19513 8.14705 2.46636C7.95716 2.72491 7.82819 3.00881 7.6921 3.28953C7.56897 3.57026 7.46981 3.85733 7.3888 4.13616C7.23521 4.69508 7.16651 5.22612 7.13994 5.68048C7.11791 6.13548 7.13087 6.5138 7.15809 6.78756C7.16781 6.91683 7.18596 7.0423 7.19892 7.12912L7.21512 7.23558L7.23197 7.23178C7.34724 7.75828 7.61258 8.2421 7.99732 8.6273C8.38205 9.01249 8.87045 9.28331 9.40601 9.40843C9.94158 9.53354 10.5024 9.50784 11.0237 9.33429C11.5449 9.16074 12.0053 8.84644 12.3515 8.42775C12.6977 8.00906 12.9156 7.50308 12.98 6.96835C13.0444 6.43362 12.9526 5.89198 12.7154 5.4061C12.4781 4.92022 12.105 4.50995 11.6393 4.22275C11.1735 3.93555 10.6341 3.78315 10.0835 3.78319Z" fill="#FD4E01"/>
</svg>
